<svg width="859" height="908" viewBox="0 0 859 908" fill="none" xmlns="http://www.w3.org/2000/svg">
<g clip-path="url(#clip0_390_1253)">
<path d="M277.09 870.602C276.273 870.648 275.465 870.388 274.774 869.857C274.084 869.326 273.544 868.551 273.229 867.636C272.914 866.721 272.838 865.71 273.012 864.741C273.185 863.772 273.601 862.891 274.201 862.218C274.301 861.733 274.373 861.385 274.474 860.9C274.438 860.794 274.402 860.689 274.365 860.583C273.543 858.226 272.164 856.215 270.403 854.805C268.642 853.395 266.577 852.648 264.468 852.657C262.358 852.667 260.297 853.433 258.545 854.859C256.793 856.285 255.427 858.307 254.619 860.672C251.389 870.112 247.277 879.568 246.265 889.548C245.819 893.96 246.007 898.432 246.82 902.766C239.235 882.686 235.296 860.86 235.271 838.77C235.269 833.227 235.523 827.688 236.031 822.179C236.45 817.663 237.033 813.179 237.778 808.728C241.844 784.573 250.573 761.933 263.249 742.667C269.384 738.604 274.346 732.358 277.465 724.768C278.595 722.04 279.394 719.127 279.836 716.121C279.144 716.231 278.441 716.3 277.749 716.355C277.533 716.369 277.306 716.383 277.091 716.397L277.009 716.401C276.249 716.442 275.495 716.216 274.837 715.75C274.18 715.283 273.648 714.596 273.306 713.77C272.963 712.945 272.824 712.018 272.906 711.099C272.987 710.18 273.286 709.31 273.766 708.592C274.065 708.146 274.364 707.7 274.663 707.254C275.117 706.566 275.582 705.891 276.036 705.203C276.088 705.137 276.137 705.069 276.183 704.996C276.705 704.211 277.227 703.44 277.749 702.656C276.796 700.861 275.515 699.358 274.005 698.264C268.774 694.546 261.558 697.121 257.78 702.862C253.991 708.604 253.276 716.658 254.592 723.832C255.886 729.935 258.027 735.727 260.923 740.959C260.639 741.4 260.344 741.827 260.061 742.268C254.876 750.359 250.357 759.047 246.568 768.207C247.489 757.945 246.39 747.563 243.36 737.917C240.289 728.927 234.533 721.355 229.464 713.583C223.376 704.248 210.891 708.322 209.818 720.156C209.808 720.271 209.798 720.385 209.788 720.5C210.541 721.015 211.278 721.562 211.999 722.141C212.905 722.875 213.607 723.925 214.013 725.152C214.419 726.378 214.51 727.725 214.274 729.016C214.039 730.307 213.487 731.481 212.692 732.385C211.897 733.289 210.896 733.881 209.819 734.082L209.709 734.103C209.977 737.396 210.451 740.659 211.127 743.865C213.085 752.814 216.546 761.175 221.292 768.425C226.038 775.675 231.968 781.657 238.708 785.996C239.151 786.271 239.582 786.547 240.024 786.808C236.218 799.898 233.831 813.533 232.922 827.37C232.407 835.534 232.438 843.734 233.013 851.892L232.979 851.603C231.526 842.532 227.539 834.347 221.69 828.43C213.002 819.77 200.728 816.581 191.356 809.619C190.36 808.843 189.202 808.429 188.018 808.426C186.835 808.422 185.675 808.83 184.676 809.6C183.676 810.37 182.88 811.471 182.379 812.772C181.879 814.074 181.695 815.522 181.851 816.946C181.863 817.048 181.876 817.149 181.889 817.25C183.286 817.941 184.646 818.736 185.962 819.632C186.715 820.148 187.452 820.695 188.173 821.273C189.079 822.008 189.781 823.057 190.187 824.284C190.593 825.511 190.684 826.858 190.448 828.149C190.213 829.44 189.661 830.614 188.866 831.518C188.071 832.422 187.07 833.013 185.993 833.215L185.883 833.235C185.803 833.249 185.735 833.263 185.656 833.277C188.043 840.194 191.393 846.561 195.561 852.098C200.708 858.801 206.93 864.158 213.844 867.839C220.758 871.521 228.219 873.45 235.77 873.508H235.781C237.831 884.316 240.8 894.837 244.642 904.9H276.297C276.41 904.473 276.512 904.033 276.614 903.606C273.684 903.829 270.743 903.617 267.855 902.973C270.204 899.475 272.552 895.951 274.901 892.453C274.953 892.388 275.003 892.319 275.049 892.247C276.24 890.457 277.442 888.681 278.634 886.891L278.634 886.889C278.698 881.402 278.178 875.928 277.09 870.602Z" fill="#F2F2F2"/>
<path d="M383.174 131.932C383.174 157.812 372.505 184.147 351.179 184.147C329.853 184.147 300.429 165.403 307.049 125.238C311.231 99.8604 323.234 85.0723 344.56 85.0723C354.801 85.0723 364.623 90.0093 371.864 98.7972C379.106 107.585 383.174 119.504 383.174 131.932Z" fill="#2F2E41"/>
<path d="M293.715 501.688C294.877 500.124 295.743 498.269 296.25 496.255C296.758 494.241 296.895 492.116 296.653 490.031C296.411 487.945 295.795 485.949 294.848 484.184C293.902 482.418 292.648 480.926 291.174 479.813L300.51 429.883L279.99 439.252L274.271 485.23C272.893 488.357 272.509 491.989 273.191 495.437C273.872 498.886 275.572 501.911 277.969 503.94C280.366 505.968 283.293 506.86 286.195 506.445C289.097 506.03 291.772 504.337 293.715 501.688Z" fill="#FFB8B8"/>
<path d="M337.269 324.713L322.947 326.483C322.947 326.483 326.693 352.23 320.835 358.029C314.978 363.828 317.339 363.801 317.373 368.099C317.407 372.397 315.103 379.588 310.414 383.941C305.726 388.294 295.975 465.819 295.975 465.819L274.725 466.066C275.359 459.398 275.305 452.661 274.566 446.009C273.306 435.994 266.938 410.767 269.265 406.441C271.592 402.116 270.367 394.161 270.299 385.565C270.231 376.969 280.364 386.468 280.251 372.141C280.138 357.814 293.135 267.915 291.852 255.035C290.57 242.154 303.466 230.542 303.466 230.542L315.271 230.404L337.269 324.713Z" fill="#5A7354"/>
<path d="M489.312 203.808C489.669 205.756 489.67 207.776 489.315 209.724C488.959 211.673 488.256 213.503 487.255 215.086C486.254 216.669 484.978 217.966 483.519 218.887C482.06 219.807 480.452 220.328 478.809 220.412L467.32 266.876L453.997 247.535L466.95 206.378C467.016 203.019 468.095 199.806 469.982 197.347C471.869 194.889 474.434 193.356 477.19 193.04C479.947 192.723 482.703 193.644 484.937 195.629C487.171 197.614 488.728 200.524 489.312 203.808Z" fill="#FFB8B8"/>
<path d="M368.013 218.942C368.013 218.942 395.788 206.304 410.847 275.514L430.837 300.638L447.631 263.811L445.41 255.075L458.39 219.367L480.643 234.865L475.165 259.381L476.091 271.5L470.773 279.038L462.068 317.996L456.623 330.724C456.623 330.724 449.755 347.021 437.767 349.705C434.571 350.431 431.302 350.544 428.077 350.039C421.764 349.039 414.846 345.508 407.736 337.715C381.359 308.804 365.759 286.501 365.759 286.501L368.013 218.942Z" fill="#5A7354"/>
<path d="M501.918 233.662L452.473 175.754C452.204 175.438 452.044 175.009 452.028 174.555C452.011 174.101 452.139 173.656 452.385 173.313C452.63 172.97 452.975 172.754 453.348 172.71C453.72 172.665 454.093 172.797 454.388 173.076L506.815 222.642L501.918 233.662Z" fill="#3F3D56"/>
<path d="M522.282 240.081C519.802 241.138 517.228 241.836 514.613 242.16C513.282 242.319 511.947 242.376 510.624 242.395C510.159 242.415 509.688 242.417 509.227 242.424C508.126 242.444 507.026 242.463 505.916 242.478C504.98 242.5 504.033 242.518 503.101 242.527C501.728 242.553 500.221 242.518 499.237 241.348C498.821 240.758 498.518 240.063 498.35 239.314C498.182 238.564 498.153 237.779 498.266 237.014C498.484 235.415 498.884 233.86 499.452 232.393C500.638 228.929 501.835 225.469 503.021 222.004L502.836 220.065C505.014 219.683 507.231 219.765 509.385 220.309C510.266 220.582 511.091 221.068 511.813 221.738C512.534 222.408 513.137 223.249 513.584 224.209C513.771 224.64 513.92 225.095 514.029 225.565C514.493 227.63 514.159 229.921 514.359 232.081C514.404 232.53 514.473 232.975 514.563 233.415C514.818 234.714 515.306 235.928 515.992 236.972C516.678 238.016 517.546 238.863 518.533 239.453C519.71 240.082 521.009 240.299 522.282 240.081Z" fill="#CCCCCC"/>
<path d="M525.759 238.401C524.727 239.29 523.535 239.865 522.282 240.08C523.464 239.592 524.624 239.031 525.759 238.401Z" fill="#E6E6E6"/>
<path d="M522.281 240.08C519.801 241.137 517.227 241.835 514.612 242.159C513.281 242.318 511.946 242.375 510.623 242.394C510.158 242.414 509.687 242.416 509.226 242.423C508.126 242.443 507.026 242.463 505.915 242.478C505.969 241.801 506.053 241.129 506.165 240.463C507.202 234.247 510.215 228.962 513.583 224.208C513.77 224.64 513.92 225.094 514.028 225.564C514.492 227.629 514.158 229.92 514.358 232.08C514.404 232.529 514.472 232.975 514.562 233.414C514.817 234.713 515.305 235.927 515.991 236.971C516.677 238.015 517.545 238.862 518.532 239.452C519.709 240.081 521.008 240.298 522.281 240.08Z" fill="#5A7354"/>
<path d="M330.758 334.832L328.793 346.194L327.123 388.106L394.241 377.078L399.394 328.547L392.271 314.342L330.758 334.832Z" fill="#FFB6B6"/>
<path d="M380.402 163.411C388.817 144.73 383.159 121.308 367.766 111.096C352.372 100.884 333.071 107.75 324.657 126.43C316.242 145.111 321.899 168.533 337.293 178.745C352.686 188.957 371.987 182.092 380.402 163.411Z" fill="#FFB7B7"/>
<path d="M304.673 282.603L295.938 255.062C295.934 243.533 299.149 232.342 305.059 223.314C310.969 214.287 319.226 207.957 328.482 205.356L328.602 205.322L334.883 195.052L360.402 198.15L365.08 209.751L383.572 223.113L404.602 252.997C411.226 258.769 415.16 266.169 416.298 274.995C418.716 293.732 407.905 312.479 406.619 314.628L403.306 337.273L326.7 350.595L326.114 350.685L304.673 282.603Z" fill="#5A7354"/>
<path d="M319.285 155.026C319.573 154.971 319.861 154.897 320.148 154.842C325.103 153.776 330.058 152.728 334.998 151.643L335.453 138.054L341.438 150.227C355.09 155.725 367.864 152.617 379.88 145.758C383.844 143.475 387.689 140.902 391.396 138.054C393.981 118.913 387.46 103.828 370.713 101.902C370.193 101.843 369.819 101.314 369.364 101.038L369.358 101.037L369.354 101.033L369.35 101.027L369.349 101.02C368.576 100.578 367.788 100.155 367 99.7693C360.832 96.8438 354.106 96.1029 347.604 97.6328C341.102 99.1627 335.091 102.9 330.27 108.412C320.573 119.647 316.209 138.201 319.285 155.026Z" fill="#2F2E41"/>
<path d="M377.546 809.4L395.77 819.562L436.74 739.094L409.844 724.097L377.546 809.4Z" fill="#FFB6B6"/>
<path d="M377.157 795.97L406.755 809.948L401.083 824.927L419.779 863.155C420.703 865.043 421.105 867.24 420.927 869.425C420.749 871.61 420 873.668 418.789 875.3C417.579 876.932 415.97 878.051 414.198 878.495C412.427 878.939 410.584 878.684 408.94 877.767L374.643 858.641L374.342 840.528L366.424 854.057L353.492 846.845L377.157 795.97Z" fill="#2F2E41"/>
<path d="M297.882 859.326H317.938L327.479 765.448L297.879 765.45L297.882 859.326Z" fill="#FFB6B6"/>
<path d="M286.976 666.694L286.975 666.442L294.508 650.688L286.816 630.181L286.27 505.546C283.24 415.48 326.298 372.185 326.637 371.759L327.57 370.581L396.624 368.53C396.624 368.53 432.917 497.827 461.75 614.33C463.454 621.215 468.274 628.007 466.775 634.823C454.886 688.893 440.775 750.09 431.718 751.819L403.033 733.075L408.364 639.366L405.086 629.168C399.215 627.855 383.95 555.967 383.95 555.967C381.392 552.28 381.524 542.258 381.524 542.258L361.53 516.784L343.102 634.203L347.659 669.225L343.888 681.268L327.738 780.683L327.567 782.284L297.12 778.596L286.976 666.694Z" fill="#2F2E41"/>
<path d="M291.09 847.32L322.795 845.023V861.507L352.937 886.77C354.425 888.017 355.547 889.81 356.137 891.885C356.727 893.961 356.754 896.211 356.216 898.307C355.678 900.403 354.601 902.236 353.144 903.537C351.686 904.838 349.925 905.54 348.115 905.539H310.37L303.864 889.234L301.324 905.539H287.093L291.09 847.32Z" fill="#2F2E41"/>
<path d="M331.456 100.062V100.095C331.46 102.113 331.248 104.122 330.825 106.074C330.758 106.416 330.678 106.774 330.584 107.116V107.133C329.683 110.617 328.13 113.802 326.045 116.436C323.961 119.07 321.402 121.083 318.569 122.316C318.153 122.511 317.723 122.674 317.293 122.821C316.388 123.139 315.464 123.368 314.528 123.505C313.688 123.65 312.84 123.72 311.991 123.717C311.327 123.72 310.664 123.682 310.004 123.603C308.459 123.413 306.94 122.992 305.48 122.348C305.251 122.268 305.027 122.17 304.809 122.055C304.699 122.008 304.591 121.953 304.487 121.892C302.051 120.655 299.848 118.83 298.012 116.529C296.175 114.227 294.744 111.496 293.803 108.503C292.863 105.509 292.434 102.314 292.542 99.1131C292.65 95.912 293.293 92.7708 294.432 89.8804L294.445 89.8641C295.399 87.4391 296.694 85.2342 298.271 83.3477C301.788 79.0958 303.338 68.4398 308.681 68.4398C308.936 68.4344 309.192 68.4453 309.446 68.4723C313.03 68.619 319.656 78.0043 322.475 80.2198C324.569 81.825 326.384 83.9114 327.818 86.3616C329.316 88.882 330.384 91.7399 330.959 94.7677C331.289 96.5042 331.455 98.2804 331.456 100.062Z" fill="#2F2E41"/>
<path d="M307.672 91.8373C304.649 96.1083 299.916 97.7685 295.647 99.991C288.111 104.003 281.496 110.184 276.375 118C271.253 125.816 267.78 135.029 266.256 144.842C265.075 152.835 265.23 161.109 263.365 168.902C261.512 176.694 256.922 184.338 250.336 185.691C245.879 186.615 241.41 184.526 237.218 182.464C234.912 181.339 232.606 180.21 230.301 179.077C232.706 171.753 235.107 164.43 237.505 157.106C233.651 164.018 229.17 170.382 224.144 176.078C215.881 172.034 207.61 167.991 199.332 163.948C219.698 164.041 216.223 140.049 220.779 115.977C223.284 102.749 244.61 93.7921 248.791 81.2069C251.051 74.3807 254.874 68.483 259.81 64.2116C264.745 59.9403 270.585 57.4742 276.639 57.1051C282.694 56.7361 288.708 58.4796 293.971 62.1293C299.234 65.779 303.526 71.1821 306.337 77.6991C310.519 79.7208 310.64 87.62 307.672 91.8373Z" fill="#2F2E41"/>
<path d="M394.175 374.43C398.862 375.913 403.183 378.748 406.773 382.694C410.362 386.639 413.113 391.579 414.791 397.092C415.697 400.262 416.263 404.021 414.705 407.036C414.228 408.117 413.446 408.952 412.501 409.386C411.557 409.821 410.515 409.825 409.568 409.4C407.534 408.383 406.133 405.859 405.098 403.622C403.728 400.461 402.55 397.183 401.574 393.813C399.976 388.728 396.568 380.24 401.435 376.265C405.528 372.921 410.947 374.22 415.553 373.991C420.53 373.743 426.062 371.43 427.83 365.17C429.549 359.082 425.518 353.356 421.172 351.04C418.559 349.726 415.721 349.209 412.905 349.534C410.089 349.86 407.382 351.018 405.021 352.908C400.354 356.834 397.021 362.684 395.643 369.369C395.543 369.876 395.609 370.41 395.828 370.859C396.046 371.307 396.4 371.635 396.814 371.774C397.228 371.912 397.67 371.85 398.047 371.601C398.424 371.351 398.706 370.934 398.834 370.437C400.201 364.383 403.157 358.686 407.769 355.583C412.087 352.678 418.01 352.499 422.039 356.26C424.032 358.12 425.597 361.215 424.577 364.289C423.64 367.109 421.201 368.786 418.879 369.468C413.628 371.009 408.136 369.015 402.901 371.05C397.91 372.991 395.034 377.946 395.753 384.374C396.298 387.986 397.18 391.511 398.383 394.881C399.404 398.346 400.599 401.732 401.959 405.02C404.037 409.786 407.784 414.946 412.729 413.548C418.365 411.955 419.703 403.97 418.495 398.097C415.741 384.706 405.855 373.98 395.055 370.557C394.638 370.436 394.198 370.517 393.828 370.782C393.459 371.047 393.188 371.476 393.074 371.978C392.96 372.48 393.011 373.017 393.217 373.474C393.422 373.932 393.766 374.275 394.175 374.43Z" fill="#2F2E41"/>
<path d="M443.705 740.228C441.365 736.87 438.027 734.821 434.784 732.861L407.573 716.412L406.798 722.273C405.769 718.418 400.719 718.135 398.672 721.335C396.625 724.536 397.28 729.374 399.277 732.622C401.273 735.869 404.305 737.896 407.241 739.824C413.752 744.1 420.263 748.376 426.773 752.652C429.807 754.645 432.938 756.675 436.366 757.13C439.795 757.585 443.636 756.085 445.344 752.449C447.139 748.63 446.044 743.585 443.705 740.228Z" fill="#2F2E41"/>
<path d="M337.85 770.857C334.522 769.121 330.781 769.096 327.158 769.1C317.024 769.11 306.891 769.119 296.758 769.129L298.221 774.793C295.882 771.902 291.259 774.385 290.605 778.358C289.952 782.331 292.318 786.305 295.3 788.129C298.281 789.952 301.74 790.122 305.077 790.257C312.476 790.554 319.875 790.852 327.273 791.149C330.721 791.288 334.27 791.408 337.505 789.957C340.74 788.506 343.624 785.083 343.815 780.903C344.015 776.513 341.179 772.593 337.85 770.857Z" fill="#2F2E41"/>
<path d="M508.712 511.834C464.126 511.834 415.676 501.052 367.551 480.319C308.038 454.681 253.471 415.982 209.749 368.406L211.044 365.255C254.555 412.601 308.88 451.122 368.147 476.654C421.705 499.728 475.665 510.419 524.174 507.598L524.258 511.386C519.135 511.686 513.953 511.835 508.712 511.834Z" fill="#F0F0F0"/>
<path d="M109.281 314.379C73.5574 257.151 87.7246 191.835 66.7952 146.269C-13.4192 -28.3701 85.3537 -12.2803 197.026 21.6812L197.293 25.4488C126.217 38.7596 79.4738 83.1507 69.0478 147.239C60.9448 197.046 75.814 255.445 110.916 311.678L109.281 314.379Z" fill="#F0F0F0"/>
<path d="M453.959 517.521C409.373 517.521 358.133 457.479 312.798 486.007C175.536 572.381 194.43 427.847 154.996 374.094L156.291 370.942C199.802 418.288 254.127 456.81 313.394 482.341C366.952 505.416 420.912 516.107 469.421 513.285L469.505 517.073C464.382 517.373 459.2 517.522 453.959 517.521Z" fill="#F0F0F0"/>
<path d="M556.244 493.678L555.497 490.087C595.373 468.147 591.947 402.801 627.624 387.878C899.394 274.205 631.127 261.386 570.785 201.258C516.825 147.488 458.016 84.9736 383.278 52.7769L383.874 49.1113C458.939 81.4497 525.854 134.455 572.289 198.363C618.959 262.592 639.411 330.241 629.876 388.848C622.357 435.064 596.896 471.313 556.244 493.678Z" fill="#F0F0F0"/>
<path d="M190.09 519.106C142.097 423.883 78.334 338.825 0 288.12L1.94074 286.022C36.6716 371.154 103.826 452.7 191.034 515.64L190.09 519.106Z" fill="#F0F0F0"/>
<path d="M498.114 628.645C489.078 628.645 479.887 628.317 470.542 627.66L470.642 623.872C539.569 671.462 601.059 660.145 648.599 584.59L649.47 588.107C608.745 614.81 556.839 628.645 498.114 628.645Z" fill="#F0F0F0"/>
<path d="M512.241 592.396C517.388 592.396 521.56 585.606 521.56 577.23C521.56 568.854 517.388 562.064 512.241 562.064C507.093 562.064 502.921 568.854 502.921 577.23C502.921 585.606 507.093 592.396 512.241 592.396Z" fill="#C1B65C"/>
<path d="M197.397 314.95C198.17 308.775 193.264 302.749 186.44 301.492C179.617 300.235 173.459 304.222 172.686 310.397C171.913 316.573 176.819 322.598 183.643 323.855C190.466 325.113 196.625 321.126 197.397 314.95Z" fill="#E6E6E6"/>
<path d="M154.493 150.396C159.641 150.396 163.813 143.606 163.813 135.23C163.813 126.854 159.641 120.064 154.493 120.064C149.346 120.064 145.174 126.854 145.174 135.23C145.174 143.606 149.346 150.396 154.493 150.396Z" fill="#E6E6E6"/>
<path d="M175.672 237.254C163.518 216.697 140.577 206.074 124.434 213.527C108.29 220.98 105.056 243.686 117.21 264.242C129.364 284.799 165.142 317.134 181.286 309.682C197.43 302.229 187.826 257.811 175.672 237.254ZM175.747 300.481C173.759 304.017 168.884 304.181 164.857 300.848C160.83 297.514 159.176 291.946 161.164 288.41C163.151 284.875 168.026 284.711 172.053 288.044C176.08 291.377 177.734 296.946 175.747 300.481Z" fill="#3F3D56"/>
<path d="M161.951 257.362C160.437 258.847 158.923 260.331 157.41 261.816C155.552 263.895 153.352 265.473 150.956 266.446C147.666 267.368 144.226 267.12 141.049 265.73C136.418 263.914 132.359 260.414 129.422 255.704L132.694 256.589C130.958 254.151 129.547 251.398 128.511 248.431C127.744 245.677 128.172 242.883 130.243 242.128C132.614 241.265 136.431 243.206 138.421 241.811C141.863 239.398 136.205 230.414 139.341 227.642C141.169 226.027 144.826 227.625 147.874 229.209C151.666 230.962 155.26 233.291 158.569 236.139C163.984 241.214 166.982 249.213 164.771 253.843C164.015 255.214 163.059 256.406 161.951 257.362Z" fill="#5A7354"/>
<path d="M160.835 272.776C158.188 273.216 155.125 270.747 152.571 268.469L151.921 267.436C151.389 265.459 151.165 263.378 151.261 261.302C151.321 260.34 151.649 259.431 152.191 258.725C152.733 258.018 153.456 257.556 154.243 257.414C155.795 257.166 157.867 257.979 158.893 256.889C160.876 254.781 156.277 248.971 158.38 246.998C159.56 245.891 162.067 247.31 163.149 249.213C164.032 250.987 164.439 253.05 164.315 255.117C164.35 258.152 164.385 261.188 164.42 264.223C164.532 266.015 164.382 267.817 163.979 269.546C163.757 270.388 163.344 271.137 162.788 271.708C162.233 272.28 161.556 272.65 160.835 272.776Z" fill="#2F2E41"/>
<path d="M161.499 282.891C157.83 281.576 152.235 276.987 147.469 272.935L146.05 271.437C144.565 269.392 143.305 267.12 142.305 264.679C141.755 262.852 142.463 261.784 144.899 262.667C147.055 263.448 150.452 265.669 151.456 265.232C153.398 264.385 144.043 255.33 146.221 254.703C147.444 254.351 151.752 257.487 154.195 260.169C155.993 262.105 157.479 264.431 158.576 267.028C160.004 270.177 161.432 273.327 162.86 276.476C163.722 278.049 164.323 279.811 164.628 281.664C164.658 283.004 163.726 283.689 161.499 282.891Z" fill="#C1B65C"/>
<path d="M680.862 37.1366C682.301 15.0228 694.36 41.1168 712.583 42.8637C716.917 43.277 721.142 44.7226 725.016 47.1177C728.89 49.5129 732.337 52.8108 735.16 56.823C737.983 60.8352 740.127 65.4831 741.47 70.5012C742.813 75.5193 743.328 80.8092 742.985 86.0688C742.643 91.3284 741.45 96.4547 739.475 101.155C737.499 105.855 734.78 110.036 731.473 113.461C728.166 116.885 724.335 119.485 720.199 121.113C716.063 122.74 711.704 123.363 707.37 122.945C689.147 121.198 679.422 59.2505 680.862 37.1366Z" fill="#5A7354"/>
<path d="M794.31 249.465C794.652 244.207 795.844 239.082 797.819 234.383C799.793 229.684 802.511 225.503 805.817 222.079C809.123 218.654 812.952 216.054 817.086 214.425C821.22 212.797 825.578 212.172 829.911 212.588C848.134 214.335 860.324 170.42 858.884 192.534C857.445 214.648 842.921 294.416 824.698 292.669C820.365 292.254 816.142 290.807 812.27 288.411C808.398 286.015 804.953 282.717 802.131 278.705C799.309 274.693 797.166 270.046 795.824 265.029C794.482 260.012 793.968 254.724 794.31 249.465Z" fill="#5A7354"/>
<path d="M835.849 297.868C830.867 300.782 825.112 299.064 820.81 295.215C815.918 290.837 813.506 283.874 812.709 276.731C811.943 269.064 812.47 261.288 814.26 253.876C815.961 246.727 819.605 239.307 826.116 237.832C830.456 236.849 835.087 239.096 836.29 244.565C836.747 246.758 836.73 249.057 836.242 251.241C835.754 253.425 834.811 255.419 833.503 257.031C829.608 261.572 823.357 261.226 818.834 258.34C813.513 254.946 810.577 248.155 809.609 241.172C808.457 232.87 810.066 224.528 812.355 216.718C814.843 208.229 817.942 199.994 820.788 191.677C826.338 175.457 831.552 158.888 833.763 141.446C837.14 114.801 831.881 83.1791 812.632 66.868C802.241 58.0629 789.208 55.5686 776.811 57.4637C763.736 59.4623 751.722 66.4243 741.083 75.6427C735.549 80.5239 730.293 85.8538 725.351 91.5958C723.854 93.465 721.932 94.7515 719.83 95.292C717.728 95.8324 715.541 95.6024 713.548 94.631C703.317 89.5779 706.577 69.3744 717.123 67.869C721.915 67.185 726.851 70.4294 730.101 74.4834C733.647 79.0842 735.961 84.8808 736.738 91.1092C738.542 104.219 734.537 118.077 727.579 128.097C719.72 139.418 707.775 145.792 696.148 149.149C682.909 152.971 669.293 153.166 655.761 153.529C641.913 153.901 627.901 154.539 614.535 159.361C603.778 163.281 593.628 169.334 584.498 177.273C566.102 193.13 552.337 215.673 545.189 241.645C543.509 247.927 542.265 254.369 541.471 260.903C541.159 263.461 544.459 263.767 544.771 261.219C548.25 232.736 560.958 206.543 578.821 187.793C587.733 178.396 597.934 170.969 608.96 165.851C622.242 159.736 636.349 158.185 650.444 157.686C664.84 157.176 679.366 157.454 693.548 153.956C706.084 150.864 718.78 144.799 727.914 133.567C735.968 123.663 740.951 109.494 740.416 95.4908C739.919 82.4612 734.006 68.529 723.051 64.657C717.91 62.8402 712.392 63.9961 708.574 68.7583C706.452 71.4734 704.991 74.8489 704.353 78.5103C703.715 82.1718 703.926 85.976 704.962 89.501C706.327 93.331 708.817 96.4076 711.948 98.1321C715.08 99.8566 718.628 100.106 721.902 98.8308C724.306 97.7592 726.477 96.0366 728.25 93.7941C738.595 82.0398 750.17 71.253 763.639 65.3997C776.203 59.9402 790.654 58.8204 803.155 65.1167C826.821 77.0367 833.932 111.631 830.624 139.81C828.459 158.251 822.706 175.713 816.821 192.795C813.816 201.518 810.476 210.185 808.175 219.232C806.116 227.332 805.082 236.024 806.771 244.369C808.245 251.653 811.735 258.347 817.317 261.875C822.388 265.08 828.823 265.633 833.791 261.822C840.973 256.311 842.589 241.096 834.522 235.551C829.169 231.872 822.314 233.679 817.875 238.511C812.898 243.928 810.865 252.041 809.839 259.804C807.9 274.474 809.423 292.538 821.363 300.387C826.282 303.62 832.147 304.493 837.289 301.485C837.669 301.242 837.957 300.83 838.091 300.335C838.226 299.84 838.196 299.301 838.009 298.832C837.822 298.363 837.493 298 837.09 297.82C836.687 297.64 836.242 297.657 835.849 297.868Z" fill="#3F3D56"/>
<path d="M540.797 250.68C542.324 227.229 515.883 164.527 527.258 147.554C528.669 145.433 530.149 143.381 531.698 141.399C536.713 134.909 542.356 129.177 548.502 124.328C549.542 123.488 550.59 122.688 551.647 121.917C555.403 119.197 559.313 116.803 563.347 114.752C564.079 114.392 564.821 114.034 565.564 113.675C585.906 104.123 608.38 103.64 628.988 112.31C649.596 120.98 667.001 138.242 678.106 161.024C689.21 183.805 693.294 210.629 689.63 236.722C685.967 262.815 674.793 286.484 658.099 303.518C657.221 304.428 656.322 305.309 655.403 306.174C646.278 314.82 635.887 321.293 624.778 325.25C624.767 325.249 624.766 325.263 624.755 325.262C608.097 331.164 590.408 331.259 573.707 325.538L573.685 325.536C573.317 325.407 572.949 325.278 572.582 325.135C531.736 310.488 537.309 304.267 540.797 250.68Z" fill="#5A7354"/>
<path d="M563.303 115.258C563.301 115.087 563.316 114.917 563.347 114.752C564.079 114.392 564.821 114.033 565.564 113.675C565.875 113.826 566.141 114.089 566.327 114.428C566.512 114.767 566.608 115.167 566.602 115.574C566.608 117.604 566.799 119.626 567.173 121.605C570.371 138.78 584.859 148.791 597.794 153.08C613.62 158.344 630.625 158.416 645.389 167.93C651.456 171.626 656.69 177.06 660.638 183.762C664.747 191.121 666.471 200.063 665.478 208.871C663.221 229.592 650.074 244.716 644.66 263.953C642.429 271.878 641.88 280.313 644.419 288.239C646.57 294.972 650.818 301.114 656.925 302.505C657.172 302.551 657.407 302.667 657.611 302.842C657.815 303.018 657.982 303.249 658.099 303.518C657.221 304.427 656.322 305.308 655.403 306.173C654.3 305.864 653.228 305.415 652.203 304.833C646.359 301.452 642.581 294.71 640.69 287.371C638.51 278.875 639.34 270.037 641.781 261.77C647.474 242.493 661.543 226.638 662.419 205.354C663.178 186.907 650.683 174.159 637.647 168.02C621.519 160.431 603.439 161.558 587.548 153.038C575.047 146.333 563.361 132.897 563.303 115.258Z" fill="#3F3D56"/>
<path d="M548.502 124.328C549.542 123.488 550.59 122.689 551.647 121.917C551.77 122.104 551.858 122.32 551.906 122.552C551.954 122.783 551.961 123.025 551.925 123.26C550.251 140.472 554.059 157.811 562.57 171.729C566.25 177.836 570.754 183.145 575.891 187.43C581.268 191.881 587.312 194.569 593.28 197.585C599.152 200.552 605.089 204.036 609.342 209.936C613.676 215.952 615.495 223.715 615.692 231.577C616.15 250.208 607.423 266.455 605.623 284.587C604.82 292.676 605.78 300.705 609.501 307.629C612.72 313.606 617.76 317.957 623.81 317.677C625.809 317.573 625.678 321.106 623.918 321.623C623.797 321.658 623.674 321.677 623.549 321.681C616.512 322 610.49 316.749 606.768 309.839C602.432 301.808 601.361 292.425 602.459 283.035C604.593 264.867 613.655 248.075 612.289 229.276C612.101 225.331 611.233 221.478 609.74 217.967C608.247 214.455 606.163 211.363 603.622 208.891C598.389 203.944 591.996 201.33 585.931 198.277C579.869 195.381 574.227 191.331 569.215 186.28C564.322 181.168 560.134 175.14 556.809 168.424C550.164 155.212 547.248 139.732 548.502 124.328Z" fill="#3F3D56"/>
<path d="M527.258 147.554C528.669 145.433 530.149 143.381 531.698 141.398C529.553 151.627 529.187 162.286 530.624 172.695C532.355 185.793 536.781 198.148 543.491 208.619C546.856 213.833 550.82 218.433 555.263 222.278C560.345 226.66 565.961 230.489 569.327 237.097C576.627 251.442 569.954 268.61 566.366 282.932C564.484 290.407 563.209 298.437 565.292 306.05C566.911 311.953 570.5 317.683 575.803 318.849C577.887 319.304 577.636 323.323 575.542 322.853C575.15 322.762 574.758 322.657 574.367 322.539C568.611 320.698 564.456 314.982 562.439 308.234C559.825 299.429 561.049 290.306 563.246 281.559C566.86 267.172 574.293 248.371 564.04 235.354C559.716 229.863 553.859 226.495 549.135 221.543C544.901 217.126 541.182 212.03 538.081 206.395C528.582 189.09 524.725 168.117 527.258 147.554Z" fill="#3F3D56"/>
<path d="M590.492 434.249V431.669H554.863V371.504H552.744V431.669H511.911V385.206C511.197 385.887 510.493 386.588 509.797 387.309V431.669H482.828C482.528 432.523 482.239 433.382 481.967 434.249H509.797V484.805H475.242C475.275 485.672 475.324 486.525 475.384 487.384H509.797V527.717H484.016C484.332 528.584 484.664 529.437 485.013 530.283H509.797V564.188H511.911V530.283H552.744V564.188H554.863V530.283H590.492V527.717H554.863C554.862 522.42 555.722 517.175 557.392 512.281C559.062 507.387 561.51 502.941 564.596 499.195C567.682 495.45 571.347 492.479 575.379 490.452C579.412 488.426 583.734 487.383 588.099 487.384H590.492V484.805H554.863V434.249H590.492ZM552.744 527.717H511.911V487.384H552.744V527.717ZM552.744 484.805H511.911V483.793C511.912 477.287 512.968 470.844 515.02 464.832C517.072 458.821 520.08 453.359 523.872 448.759C527.663 444.158 532.165 440.508 537.119 438.019C542.072 435.529 547.382 434.248 552.744 434.249V484.805Z" fill="#3F3D56"/>
<path d="M489.703 907.589L185.479 908C185.13 908 184.796 907.832 184.55 907.533C184.303 907.234 184.165 906.829 184.165 906.406C184.165 905.983 184.303 905.578 184.55 905.279C184.796 904.98 185.13 904.812 185.479 904.812L489.703 904.4C489.876 904.4 490.047 904.441 490.207 904.52C490.367 904.6 490.512 904.718 490.635 904.866C490.757 905.014 490.854 905.19 490.92 905.383C490.987 905.577 491.021 905.785 491.021 905.995C491.021 906.204 490.987 906.412 490.92 906.606C490.854 906.799 490.757 906.975 490.635 907.123C490.512 907.272 490.367 907.389 490.207 907.469C490.047 907.549 489.876 907.589 489.703 907.589Z" fill="#CACACA"/>
</g>
<defs>
<clipPath id="clip0_390_1253">
<rect width="859" height="908" fill="white"/>
</clipPath>
</defs>
</svg>
