<svg width="1440" height="180" viewBox="0 0 1440 180" fill="none" xmlns="http://www.w3.org/2000/svg">
<path d="M0 72.0003L24 69.0191C48 65.8128 96 60.1878 144 69.0191C192 78.1878 240 101.813 288 96.0191C336 90.0003 384 54.0003 432 51.0191C480 47.8128 528 78.1878 576 96.0191C624 114.188 672 119.813 720 108C768 96.1878 816 65.8128 864 74.9816C912 83.8128 960 132.188 1008 141.019C1056 150.188 1104 119.813 1152 99.0003C1200 78.1878 1248 65.8128 1296 65.9816C1344 65.8128 1392 78.1878 1416 83.9816L1440 90.0003V180H1416C1392 180 1344 180 1296 180C1248 180 1200 180 1152 180C1104 180 1056 180 1008 180C960 180 912 180 864 180C816 180 768 180 720 180C672 180 624 180 576 180C528 180 480 180 432 180C384 180 336 180 288 180C240 180 192 180 144 180C96 180 48 180 24 180H0V72.0003Z" fill="#FDF7F5"/>
</svg>
