<svg width="376" height="90" viewBox="0 0 376 90" fill="none" xmlns="http://www.w3.org/2000/svg">
<path d="M376 33.5187L371.169 26.0816C366.365 18.5049 356.678 3.84035 347.017 7.43667C337.434 11.1727 327.694 33.5187 318.033 37.2547C308.503 40.851 298.972 26.1864 289.311 29.7827C279.598 33.5187 269.989 55.8648 260.328 63.3018C250.667 70.8785 241.006 63.1971 231.344 59.6007C221.736 55.8648 212.022 55.8648 202.361 59.6007C192.831 63.1971 183.3 70.8785 173.639 68.8883C163.899 67.0378 154.317 55.8648 144.656 46.5423C134.968 37.3595 125.333 29.678 115.672 29.7828C106.063 29.678 96.35 37.3595 86.6889 42.8412C77.1322 48.5325 67.3667 52.0241 57.9667 48.4278C48.2011 44.6918 38.6444 33.5188 28.9833 24.1963C19.27 15.0135 9.66111 7.332 4.7 3.73569L-1.78557e-06 -0.000287699L9.53674e-07 89.3839L4.83056 89.3839C9.635 89.3839 19.3222 89.3839 28.9833 89.3839C38.5661 89.3839 48.3056 89.3839 57.9667 89.3839C67.4972 89.3839 77.0278 89.3839 86.6889 89.3839C96.4022 89.3839 106.011 89.3839 115.672 89.3839C125.333 89.3839 134.994 89.3838 144.656 89.3838C154.264 89.3838 163.978 89.3838 173.639 89.3838C183.169 89.3838 192.7 89.3838 202.361 89.3838C212.101 89.3838 221.683 89.3838 231.344 89.3838C241.032 89.3838 250.667 89.3838 260.328 89.3838C269.937 89.3838 279.65 89.3838 289.311 89.3838C298.868 89.3838 308.633 89.3838 318.033 89.3838C327.799 89.3838 337.356 89.3838 347.017 89.3838C356.73 89.3838 366.339 89.3838 371.3 89.3838L376 89.3838L376 33.5187Z" fill="#FDF7F5"/>
</svg>
